<svg width="2501" height="2333" viewBox="0 0 2501 2333" fill="none" xmlns="http://www.w3.org/2000/svg">
<path d="M1358.73 159.11C1357.77 153.931 1357.11 148.7 1356.77 143.444C1351.64 69.6671 1407.18 5.69136 1480.95 0.493717C1554.8 -4.65184 1618.75 50.9598 1623.91 124.737C1629.06 198.514 1573.5 262.49 1499.74 267.688C1495.07 268.042 1490.45 268.104 1485.93 267.927C1482.94 268.698 1481.14 269.063 1478.57 271.333C1470.98 283.166 1497.88 280.958 1479.59 332.674C1479.59 332.674 1479.47 338.351 1477.44 344.027C1476 363.881 1468.36 422.711 1467.27 454.042C1471.16 458.584 1472.25 460.792 1471.82 471.802C1470.09 486.686 1466.68 523.164 1461.19 546.537C1456.53 566.568 1448.36 570.39 1441.76 575.296C1432.49 616.794 1430.04 651.167 1406.26 701.571C1404.11 739.777 1401.42 750.183 1393.41 768.838C1392.51 825.095 1396.4 833.47 1358.44 922.548C1348.64 964.213 1357.96 993.034 1368.31 1036.32C1378.89 1080.81 1408.24 1099.4 1412.61 1144.96C1422.89 1252.26 1420.31 1325.31 1397.3 1409.44L1417.39 1457.02C1442.32 1468.46 1504.2 1499.73 1469.89 1549.22C1518.21 1574.62 1591.19 1601.58 1651.4 1653.08C1675.61 1673.25 1701.2 1695.24 1724.15 1721.05C1767.86 1727.86 1763.19 1731.33 1795.59 1751.23C1890.84 1809.64 2043.59 1925.49 2132.14 2007.52C2147.39 2016.43 2153.61 2022.84 2165.92 2029.3C2167.85 2032.99 2168.37 2033.84 2167.94 2034.84C2163.71 2045.55 2163.87 2045.86 2160.05 2054.39C2164.83 2059.67 2173.73 2064.61 2179.06 2069.24C2184.03 2070.79 2184.03 2068.4 2192.58 2066.31C2203.69 2076.72 2217.46 2085.1 2222.4 2084.61C2237.47 2080.79 2234.9 2083.9 2247.64 2069.65C2252.22 2064.94 2259.89 2069.72 2259.89 2069.72C2264.68 2064.1 2274.96 2052.91 2288.66 2044.83C2299.6 2038.38 2320.47 2037.67 2320.47 2037.67C2327.46 2037.73 2326.15 2044.89 2325.55 2047.23C2317.65 2051.3 2300.92 2055.78 2291.53 2062.71C2271.07 2083.86 2255.05 2112.4 2255.05 2112.4C2296.24 2106.78 2321.54 2116.99 2355.86 2113.06C2374.58 2111.97 2388.39 2113.18 2408.04 2098.95C2408.04 2098.95 2426.94 2085.51 2443.86 2078.37C2460.3 2071.21 2475.9 2075.03 2490.37 2085.54C2500.59 2097.07 2506.75 2097.13 2491.21 2113.41C2485.59 2119.73 2477.46 2126.8 2467.12 2137.03C2448.95 2154.98 2424.48 2178.92 2399.15 2198.73C2373.49 2218.76 2344.38 2236.75 2326.2 2245C2280.35 2277.94 2291.17 2269.33 2255.12 2301.98C2250.57 2306.06 2238.5 2313.34 2232.65 2317.22C2218.43 2326.56 2213.99 2318.78 2204.72 2301.68C2204.72 2301.68 2200.48 2295.3 2193.48 2281.65C2185.84 2266.77 2180.1 2249.75 2182.42 2250.03C2173.88 2248.95 2135.42 2203.87 2135.33 2194.2C2127.19 2192.33 2092.51 2158.75 2091.27 2152.34L2060.54 2127.7C2025.39 2135 2017.32 2113.17 1924.48 2047.29C1913.88 2047.1 1897.52 2041.38 1874.06 2023.99C1832.17 1990.43 1731.65 1914.51 1714.61 1905.83C1696.31 1896.51 1674.45 1887.73 1661.03 1876.65C1640.94 1872.96 1629.95 1870.85 1619.9 1868.05C1609.63 1865.24 1600.28 1861.6 1574.29 1858.12C1531.97 1852.86 1488.07 1835.34 1446.28 1814.43C1426.5 1805.05 1409.27 1800.27 1392.24 1792.95C1354.04 1776.82 1321.28 1762.28 1295.89 1756.42C1286.21 1755.46 1240.17 1741.65 1216.02 1727.56C1207.65 1723.25 1202.81 1719.12 1197.31 1717.86C1184.63 1714.94 1176.49 1719.95 1170.77 1721.88C1139.8 1738.02 1110.8 1751.95 1084.01 1766.37C1059.07 1779.7 1036.12 1793.55 1011.78 1807.56C989.838 1820.24 964.485 1832.19 938.424 1844.63C938.424 1844.63 864.105 1881.88 823.514 1896.36C788.297 1925.11 716.311 1974.85 672.376 1999.48C650.617 2009.82 608.348 2036.6 588.849 2042.59C577.725 2051.55 538.091 2079.83 507.062 2103.15C483.084 2121.09 464.97 2136.21 464.97 2136.21C451.044 2148.7 451.992 2154.63 425.514 2143.38C418.16 2149.42 412.483 2153.18 407.755 2156.65C388.631 2170.52 387.006 2167.18 380.017 2166.82C366.684 2178.36 365.007 2172.39 353.351 2185.67C345.695 2197.52 353.528 2194.69 337.383 2200.44C333.977 2201.75 332.363 2205.87 329.738 2208.15C316.759 2218.83 316.707 2249.04 285.615 2251.2C267.616 2264.04 272.22 2279.55 258.471 2278.87C259.315 2292.19 234.139 2311.64 229.597 2311.58C189.954 2325.25 187.204 2296.11 139.613 2317.86C133.457 2320.68 124.426 2328.46 112.531 2330.71C91.6049 2334.66 66.3146 2330.53 50.8883 2318.58C26.6084 2299.86 4.25538 2263.75 4.25538 2263.75C-3.46295 2245.51 1.02639 2233.98 25.1188 2216.74C35.16 2210.35 37.014 2205.57 53.8777 2204.42C62.2523 2201.25 59.9711 2206.09 74.9287 2200.73C83.5949 2197.62 83.5949 2199.83 101.052 2198.34C105.052 2195.65 110.677 2194.69 118.208 2192.24C132.019 2187.69 145.477 2182.62 145.477 2182.62C145.477 2182.62 148.998 2179.09 162.278 2180.35C173.517 2175.74 185.058 2168.91 190.975 2166.82C189.475 2149.01 191.391 2149.85 199.641 2142.68C209.921 2133.82 211.775 2135.26 219.431 2140.75C222.66 2138.89 224.212 2138.25 223.858 2135.55C222.598 2126.28 214.65 2121.91 217.046 2101.47C213.515 2093.29 208.317 2083.18 209.453 2077.08C211.13 2070.5 212.744 2067.32 216.744 2065.23C220.994 2062.97 222.369 2066.02 224.639 2068.57C228.702 2073.3 231.993 2087.3 231.993 2087.3C233.431 2103.09 238.326 2123.54 253.929 2112C263.137 2102.66 264.929 2077.8 283.699 2083.12L297.094 2094.77C308.458 2084.08 308.999 2084.08 315.812 2079.78C315.812 2079.78 305.166 2069.02 314.499 2060.64C320.895 2054.96 328.603 2050.88 342.3 2035.71C379.902 1994.16 399.213 1975.79 439.878 1942.31C521.009 1875.58 613.316 1828.78 671.97 1805.51C691.094 1781.23 709.697 1765.1 752.142 1761.02C802.598 1675.82 899.218 1599.73 921.404 1587.6C939.455 1554.88 947.288 1558.36 970.901 1551.79C989.609 1536.79 993.859 1536.79 1002.23 1521.12C1010.37 1488.79 983.463 1402.39 1052.15 1398.02C1066.74 1377.41 1063.09 1382.36 1079.35 1362.87C1068.35 1335.72 1063.81 1313.02 1060.82 1293.46C1060.28 1291.19 1033.56 1272.35 1041.15 1247.77C1029.79 1234.26 1008.57 1202.73 1001.93 1187.96C998.89 1188.02 996.369 1186.88 993.025 1186.42C989.557 1185.87 985.244 1186.07 980.411 1185.65C969.714 1213.25 958.058 1215.3 939.039 1221.4C905.082 1293.77 893.124 1324.4 797.046 1384.23C758.902 1426.94 746.705 1474.52 746.882 1473.81C740.31 1487.91 742.632 1507.65 746.101 1518.24C741.08 1533.9 742.393 1535.45 742.393 1535.45C744.487 1541.37 749.934 1549.2 756.621 1550.87C768.162 1553.92 779.703 1553.43 779.037 1566.28C777.485 1582.37 756.382 1579.73 746.393 1577.94C707.947 1571.84 720.092 1546.79 695.51 1555.15C676.678 1567.47 669.626 1603.82 638.888 1599.11C634.826 1596.42 636.076 1588.47 638.826 1582.73C643.138 1573.76 650.783 1566.35 646.242 1562.98C626.199 1569.4 606.189 1575.92 586.214 1582.54C567.381 1587.68 546.747 1578.29 565.288 1565.91C573.902 1562.57 586.214 1558.37 601.4 1548.64C601.4 1548.64 609.223 1537.99 594.224 1543.32C577.839 1549.17 553.684 1552.82 536.352 1550.91C536.352 1550.91 500.416 1546.19 495.812 1543.37C491.146 1540.55 486.907 1529.44 498.146 1529.51C512.374 1529.63 548.007 1525.43 575.631 1518.08C588.964 1512.88 614.316 1497.88 628.545 1490.82C628.545 1490.82 643.971 1468.34 652.46 1463.92C666.626 1447.6 678.584 1437.97 691.135 1421.28C703.395 1395.98 716.071 1355.94 756.663 1293.93C775.433 1265.35 798.754 1232.06 828.107 1202.29C828.107 1202.29 835.7 1154.65 873.907 1120.75C882.344 1100.89 895.135 1077.52 907.749 1055.87C912.655 1047.56 917.311 1040.33 921.977 1032.44C933.82 1013.85 946.257 979.233 992.411 973.785C992.411 973.785 1012.14 959.203 1019.73 948.839C1031.58 938.735 1028.88 923.017 1038.5 911.945C1023.79 897.602 986.192 870.635 982.536 833.147C978.651 793.389 992.817 760.682 1016.86 736.475C1043.52 709.81 1071.63 696.477 1105.76 698.508C1148.38 704.841 1156.45 718.955 1170.03 732.944C1183.06 746.214 1187.9 737.673 1193.4 753.214C1229.16 762.724 1227.18 758.536 1226.88 784.847C1232.38 792.253 1241.58 799.138 1241.46 814.502C1253.48 789.566 1255.87 784.973 1287.98 757.526C1295.57 735.225 1300.73 713.289 1307.39 690.988C1313.65 670.364 1321.43 649.136 1327.47 633.168C1321.07 588.087 1334.2 580.619 1351.74 541.1C1348.63 535.663 1349.3 534.111 1350.61 525.195C1357.42 499.071 1368.07 464.511 1374.4 441.97C1374.4 441.97 1376.49 433.002 1385.76 432.346C1393.78 403.826 1405.81 350.735 1407.83 339.913C1416.08 310.081 1410.75 300.509 1404.42 283.708C1402.39 278.208 1403.34 270.375 1399.83 264.271C1389.84 246.876 1379.09 224.273 1371.8 208.128C1367.07 197.848 1359.59 159.1 1359.59 159.1C1353.17 139.32 1358.73 159.11 1358.73 159.11Z" fill="black"/>
</svg>
